<svg xmlns="http://www.w3.org/2000/svg" data-name="Layer 1" viewBox="0 0 512 512"><path d="M406.3026 416.05584H360.82213a3 3 0 010-6H406.3026a3 3 0 010 6zM149.91255 217.57584s-1.44-6.12 15.48-11.52 26.28-11.88 28.08-19.44c0 0 3.96 19.44 11.16 23.04 0 0 9-28.08-11.88-38.16s-44.64 4.32-54.36 23.04-7.92 22.32-18 33.84c-6.53963 7.47387-53.64 33.48-16.92 61.92 0 0 25.92-37.8 40.32-34.92 0 0 4.985-21.65036 4.29251-24.14518-.67061-2.41594-14.36445-12.789-9.83547-23.41363a3.92044 3.92044 0 012.085-2.159C142.41822 204.82936 146.24827 205.4837 149.91255 217.57584z"/><path d="M162.98193,284.9502c-4.96.001-11.39892-9.63379-19.65088-29.38184a.49993.49993,0,0,1,.92286-.38477c10.34228,24.751,16.15088,29.28418,19.22119,28.72266,4.60254-.8418,6.04883-13.876,6.21777-18.82715a33.399,33.399,0,0,1,1.957-14.332.49517.49517,0,0,1,.57031-.2998c7.89991,1.7373,14.49561.48046,19.59913-3.73731,12.87109-10.63672,12.32031-36.77734,12.313-37.04a.50053.50053,0,0,1,.48633-.51367.52035.52035,0,0,1,.51367.48633c.0293,1.09277.57276,26.88769-12.67431,37.83691-5.25977,4.34766-11.99756,5.70313-20.02832,4.03516a33.38288,33.38288,0,0,0-1.73926,13.53418c-.02393.82324-.70313,18.68262-7.03516,19.84082A3.77416,3.77416,0,0,1,162.98193,284.9502Z"/><path d="M187.6792 230.377a6.72276 6.72276 0 01-5.54053-3.041.5.5 0 01.82813-.56055 5.75 5.75 0 003.415 2.43262 3.85653 3.85653 0 002.97558-.29 3.94878 3.94878 0 001.46485-2.68067 7.69728 7.69728 0 00-.46875-4.18164c-.19385-.63671-.41358-1.35937-.6084-2.207-.5586-2.43261-1.32422-5.76269.02685-8.94824a8.8161 8.8161 0 015.35889-5.084 8.23251 8.23251 0 015.24268.2539.49981.49981 0 01-.36231.93164 7.21515 7.21515 0 00-4.59717-.22656 7.81685 7.81685 0 00-4.72021 4.51367c-1.22559 2.88867-.50244 6.03711.02588 8.335.187.81446.40136 1.51953.59033 2.14063a8.58526 8.58526 0 01.49267 4.66992 4.88363 4.88363 0 01-1.8955 3.31934A4.00115 4.00115 0 01187.6792 230.377zM185.67285 208.25781a.4997.4997 0 01-.42187-.23144c-3.63868-5.7002-12.625-2.23828-12.71485-2.2041a.49979.49979 0 11-.36718-.92969c.09765-.04 9.84765-3.791 13.9248 2.59668a.49931.49931 0 01-.4209.76855z"/><ellipse cx="180.213" cy="216.316" rx="3.78" ry="2.34" transform="rotate(-81.763 180.213 216.316)"/><ellipse cx="197.243" cy="218.781" rx="3.78" ry="2.34" transform="rotate(-81.763 197.243 218.781)"/><path d="M180.75293 236.55566c-.01465 0-.0293-.001-.04443-.00195-3.81543-.335-6.377-1.55859-7.61426-3.63476a7.22345 7.22345 0 01-.24072-6.06153.5.5 0 01.918.39649c-.01171.02832-1.19482 2.85156.186 5.16015 1.06494 1.78028 3.36572 2.83789 6.83887 3.14356a.5.5 0 01-.04346.998zM172.11255 250.39584a26.10291 26.10291 0 01-17.16-9.6A37.937 37.937 0 00170.13 263.6638 32.05331 32.05331 0 01172.11255 250.39584z"/><path d="M145.34229,344.2373c-8.56348,0-15.5962-.041-17.42286-.1621a1.90733,1.90733,0,0,1-1.50976-.90528c-2.55811-3.916,3.27246-21.05371,4.68652-25.05078-8.05224-.77734-35.74365-13.60742-36.9541-14.16992a.49943.49943,0,0,1-.20068-.73731l9.12011-13.20019a.49979.49979,0,0,1,.82227.56836L95.10205,303.291c4.10889,1.88867,30.42188,13.86523,36.69043,13.86523a.50016.50016,0,0,1,.47022.66992c-2.10206,5.81543-7.10059,21.60547-5.01612,24.79688a.90519.90519,0,0,0,.73926.4541c5.12158.33984,53.25488.02734,57.29736.001,1.458-2.207,13.2544-20.33691,11.31739-25.89843-2.13184-6.11914-3.58008-9.86621-3.59424-9.90332a.50081.50081,0,0,1,.207-.6084l7.55859-4.58106c-1.30615-3.21582-10.98926-25.70019-30.90478-37.99707a.5003.5003,0,0,1,.52539-.85156c21.67236,13.38281,31.37256,38.62793,31.46777,38.88184a.50007.50007,0,0,1-.20849.60351l-7.563,4.583c.42334,1.11328,1.71191,4.53809,3.45605,9.54492,2.21631,6.36231-11.01269,26.16406-11.57715,27.00391a.50032.50032,0,0,1-.41162.2207C184.15088,344.08594,161.89111,344.2373,145.34229,344.2373Z"/><polygon points="142.128 292.696 132.288 317.656 125.522 316.116 142.128 292.696"/><polygon points="193.113 307.456 182.493 289.756 196.281 305.536 193.113 307.456"/><path d="M243.15967,399.40723c-3.26172,0-6.46582-2.17383-7.52588-2.9668a4.85976,4.85976,0,0,1-4.0166,1.51269c-4.38233-.542-8.34668-7.57226-10.96973-12.22363a34.4151,34.4151,0,0,0-2.00928-3.32715c-.89062-1.14355-3.42138.28614-6.626,2.09766-4.103,2.31836-9.73975,5.49707-15.74805,5.2959l-1.97314-.0625c-43.94971-1.36719-118.54688-5.03028-124.36084-14.21-6.92286-10.93067,26.25976-68.168,27.67578-70.59961a.50021.50021,0,0,1,.86425.5039c-.34375.58985-34.29589,59.13868-27.69531,69.56055,4.06592,6.41992,49.09717,11.43067,123.54688,13.74512l1.97558.0625c5.73682.17578,11-2.7793,15.22266-5.166,3.76611-2.12988,6.48633-3.66894,7.90723-1.84082a33.6474,33.6474,0,0,1,2.09082,3.44922c2.5249,4.47656,6.34033,11.24219,10.22168,11.72266a4.03433,4.03433,0,0,0,3.49072-1.53028.49769.49769,0,0,1,.67969-.041c.04931.04,4.96923,4.02246,8.91015,2.77051,2.01465-.64454,3.47119-2.58008,4.32959-5.75489a.49978.49978,0,0,1,.77442-.27441c.05224.03711,5.26513,3.7334,9.01123,2.10937,2.04931-.8916,3.33105-3.248,3.81006-7.00488a23.42572,23.42572,0,0,0-1.77637-12.00976c-2.04151-4.84571-6.29346-13.64356-11.83106-18.1211a.5.5,0,0,1,.53809-.83594c.62012.31055,15.25586,7.65821,21.35889,13.40333,3.15234,2.96777,6.25879,3.11914,7.9375,1.94921,1.89306-1.3164,2.19922-4.19433.79931-7.51074-3.38135-8.00879-23.85986-23.89648-27.27881-24.72949a.49971.49971,0,0,1-.189-.87988c.07519-.0586,7.50439-5.8916,8.53711-11.39649.68066-3.63183.23193-6.43457-1.231-7.6914-1.20215-1.03223-3.11133-1.10059-5.67285-.20508-3.167,1.1084-6.43066,3.31152-9.58643,5.44238-3.97851,2.68555-8.09228,5.46289-12.26269,6.27637-4.74463.92578-9.563,1.48926-13.08106,1.90136-2.04589.23926-3.66211.42872-4.748.62012-6.33008,1.11719-21.76563,4.377-28.3667,10.49512a.50032.50032,0,0,1-.67969-.73438c6.7959-6.29785,22.45557-9.6123,28.87256-10.74511,1.11475-.19727,2.74365-.3877,4.80566-.62891,3.502-.41016,8.29883-.97168,13.00586-1.89062,3.97119-.77442,7.999-3.49317,11.89453-6.12305,3.2085-2.166,6.52637-4.40625,9.81592-5.55664,2.92334-1.02442,5.1626-.8916,6.6543.38965,1.76709,1.51758,2.32178,4.584,1.562,8.63379-.9209,4.91308-6.2998,9.82421-8.228,11.44921,5.3833,2.51172,23.80957,17.19727,27.09717,24.98438,1.90625,4.51465.65625,7.46484-1.14941,8.7207-2.01172,1.39844-5.63379,1.30762-9.19385-2.042-4.30225-4.05078-13.228-9.06543-17.98193-11.60254,4.16162,4.55176,7.40722,11.01758,9.52343,16.03906a24.4375,24.4375,0,0,1,1.84668,12.52539c-.52685,4.13184-2.00927,6.75489-4.40576,7.7959-3.51221,1.52735-7.853-.84765-9.40967-1.8291-.979,3.13477-2.59179,5.0791-4.80029,5.78418A6.42206,6.42206,0,0,1,243.15967,399.40723Z"/><path d="M235.59277 396.27539a.49042.49042 0 01-.188-.03711.49988.49988 0 01-.2754-.65137c1.8379-4.52343-6.87988-19.25879-10.39355-24.55468a.49986.49986 0 11.833-.55274c.52783.79492 12.89844 19.54785 10.4873 25.48438A.49992.49992 0 01235.59277 396.27539zM249.63184 393.03613a.49952.49952 0 01-.49756-.458c-1.05518-12.66406-13.52637-29.09374-13.65235-29.25878a.49983.49983 0 11.79395-.60743c.521.68067 12.77539 16.82618 13.85449 29.78223a.49952.49952 0 01-.45654.54C249.65967 393.03516 249.64551 393.03613 249.63184 393.03613zM216.53809 333.11914a.50058.50058 0 01-.42871-.24121L198.648 303.959a.50034.50034 0 01.85644-.51757l17.46143 28.91894a.50069.50069 0 01-.42773.75879zM73.95312 402.9209a.52365.52365 0 01-.1333-.01758.50073.50073 0 01-.34912-.61523l6.2461-22.66895a.4999.4999 0 11.96386.26563l-6.24609 22.66894A.5.5 0 0173.95312 402.9209zM196.28076 402.9209a.49971.49971 0 01-.5-.5v-13.125a.5.5 0 111 0v13.125A.49971.49971 0 01196.28076 402.9209z"/><path d="M462.99268,402.9209H61.23242a.5.5,0,1,1,0-1H462.99268a.5.5,0,0,1,0,1Z"/><path fill="#fed44a" d="M434.16628,386.29584H301.39255l20-96H453.33294a2,2,0,0,1,1.958,2.40791l-19.16667,92A2,2,0,0,1,434.16628,386.29584Z"/><path d="M313.282,291.88789l-19.16667,92a2,2,0,0,0,1.958,2.4079h5.3192l20-96h-6.15253A2,2,0,0,0,313.282,291.88789Z"/><path fill="#2ca68f" d="M417.301,416.05584H385.55255l-20-57.6h33.13731a2,2,0,0,1,1.88935,1.344l18.61111,53.6A2,2,0,0,1,417.301,416.05584Z"/><path d="M359.77271,361.11185l18.61111,53.6a2,2,0,0,0,1.88935,1.344h5.27946l-20-57.6h-3.89057A2,2,0,0,0,359.77271,361.11185Z"/><rect width="14.4" height="9.12" x="371.393" y="333.736" rx="4.56"/><path fill="#fd6f41" d="M291.72314,124.94221h-61.687a2,2,0,0,0-2,2v44.24024a2,2,0,0,0,2,2h38.24353l7.74255,12.32617a.99983.99983,0,0,0,1.72-.04443l6.85742-12.28174h7.12353a2,2,0,0,0,2-2V126.94221A2,2,0,0,0,291.72314,124.94221Z"/><path fill="#c1e5d9" d="M413.94261,166.53363H320.03245a2.0001,2.0001,0,0,0-2,2v52.28662a2.0001,2.0001,0,0,0,2,2h70.16894l6.60877,10.521a.99971.99971,0,0,0,1.71985-.04444l5.84973-10.47656h9.56287a2.0001,2.0001,0,0,0,2-2V168.53363A2.0001,2.0001,0,0,0,413.94261,166.53363Z"/><path d="M245.75964 152.97745c3.86071 0 3.8671-6 0-6-3.86072 0-3.86711 6 0 6zM260.87964 152.97745c3.86071 0 3.8671-6 0-6-3.86072 0-3.86711 6 0 6zM275.99964 152.97745c3.86071 0 3.8671-6 0-6-3.86072 0-3.86711 6 0 6zM403.15967 186.97656H368.59961a1 1 0 010-2h34.56006a1 1 0 010 2zM403.15967 196.09375H368.59961a1 1 0 010-2h34.56006a1 1 0 010 2zM403.15967 205.21094H368.59961a1 1 0 010-2h34.56006a1 1 0 010 2zM357.47949 210.01367H331.23975a3.00328 3.00328 0 01-3-3V183.17383a3.00328 3.00328 0 013-3h26.23974a3.00328 3.00328 0 013 3v23.83984A3.00328 3.00328 0 01357.47949 210.01367zm-26.23974-27.83984a1.001 1.001 0 00-1 1v23.83984a1.001 1.001 0 001 1h26.23974a1.001 1.001 0 001-1V183.17383a1.001 1.001 0 00-1-1z"/><path fill="#2ca68f" d="M363.35973,200.65491h-61.52a2,2,0,0,0-2,2v42.398a2,2,0,0,0,2,2h12.46082l6.67444,10.626a1,1,0,0,0,1.72-.04492l5.9082-10.58106h34.75659a2.0001,2.0001,0,0,0,2-2v-42.398A2.0001,2.0001,0,0,0,363.35973,200.65491Z"/><path d="M349.87988 216.06152H315.31982a1 1 0 010-2h34.56006a1 1 0 010 2zM349.87988 225.17773H315.31982a1 1 0 010-2h34.56006a1 1 0 110 2zM349.87988 234.29492H315.31982a1 1 0 010-2h34.56006a1 1 0 010 2z"/><rect width="56.137" height="6.404" x="49.007" y="339.654" fill="#fed44a"/><rect width="56.137" height="6.404" x="403.16" y="267.333" fill="#674cfb"/><rect width="56.137" height="6.404" x="105.757" y="146.775" fill="#fd6f41"/><path d="M349.87988 129.53418a4.59229 4.59229 0 114.59229-4.5918A4.59745 4.59745 0 01349.87988 129.53418zm0-8.18457a3.59229 3.59229 0 103.59229 3.59277A3.59667 3.59667 0 00349.87988 121.34961zM225.15234 256.82227a4.59229 4.59229 0 114.59278-4.59278A4.59787 4.59787 0 01225.15234 256.82227zm0-8.18457a3.59229 3.59229 0 103.59278 3.59179A3.596 3.596 0 00225.15234 248.6377z"/><polygon fill="#fd6f41" points="434.888 240.216 427.568 238.216 432.888 231.896 434.888 240.216"/><polygon fill="#fed44a" points="73.116 283.291 65.796 281.291 71.116 274.971 73.116 283.291"/><polygon fill="#fed44a" points="284.807 99.695 277.487 97.695 282.807 91.375 284.807 99.695"/><polygon fill="#674cfb" points="137.485 176.5 130.165 174.5 135.485 168.18 137.485 176.5"/><polygon fill="#2ca68f" points="265.773 420.625 258.453 418.625 263.773 412.305 265.773 420.625"/></svg>