<svg width="192" height="62" viewBox="0 0 192 62" fill="none" xmlns="http://www.w3.org/2000/svg">
<path d="M14.696 46.384C10.44 46.384 7.032 45.584 4.472 43.984C1.912 42.352 0.632 39.872 0.632 36.544C0.632 34.784 0.936 33.44 1.544 32.512C2.152 31.584 3.048 31.12 4.232 31.12C5.096 31.12 5.8 31.344 6.344 31.792C6.888 32.24 7.16 32.816 7.16 33.52C7.16 34.16 7.112 34.72 7.016 35.2C7.016 35.328 6.984 35.552 6.92 35.872C6.888 36.192 6.872 36.528 6.872 36.88C6.872 38.32 7.592 39.392 9.032 40.096C10.504 40.8 12.552 41.152 15.176 41.152C17.896 41.152 20.024 40.672 21.56 39.712C23.096 38.72 23.864 37.344 23.864 35.584C23.864 34.496 23.512 33.568 22.808 32.8C22.104 32 21.224 31.344 20.168 30.832C19.112 30.288 17.624 29.632 15.704 28.864C13.24 27.904 11.224 26.992 9.656 26.128C8.12 25.264 6.792 24.096 5.672 22.624C4.584 21.12 4.04 19.264 4.04 17.056C4.04 14.752 4.648 12.704 5.864 10.912C7.112 9.12 8.888 7.728 11.192 6.736C13.528 5.744 16.264 5.248 19.4 5.248C21.736 5.248 23.88 5.6 25.832 6.304C27.784 6.976 29.336 8.016 30.488 9.424C31.672 10.832 32.264 12.56 32.264 14.608C32.264 16.624 31.96 18.144 31.352 19.168C30.744 20.192 29.848 20.704 28.664 20.704C27.832 20.704 27.128 20.448 26.552 19.936C26.008 19.424 25.736 18.816 25.736 18.112C25.736 17.504 25.784 16.944 25.88 16.432C25.976 15.472 26.024 14.864 26.024 14.608C26.024 13.264 25.368 12.24 24.056 11.536C22.744 10.832 21.112 10.48 19.16 10.48C16.408 10.48 14.296 10.992 12.824 12.016C11.384 13.008 10.664 14.416 10.664 16.24C10.664 17.456 11.032 18.496 11.768 19.36C12.536 20.224 13.48 20.944 14.6 21.52C15.72 22.096 17.288 22.784 19.304 23.584C21.736 24.576 23.688 25.472 25.16 26.272C26.632 27.072 27.88 28.16 28.904 29.536C29.96 30.912 30.488 32.608 30.488 34.624C30.488 38.4 29.048 41.312 26.168 43.36C23.32 45.376 19.496 46.384 14.696 46.384ZM59.0653 31.264C59.4813 31.264 59.8013 31.472 60.0253 31.888C60.2493 32.304 60.3613 32.832 60.3613 33.472C60.3613 35.008 59.8973 35.92 58.9693 36.208C57.0493 36.88 54.9373 37.264 52.6333 37.36C52.0253 40.048 50.8253 42.208 49.0333 43.84C47.2413 45.44 45.2093 46.24 42.9373 46.24C41.0173 46.24 39.3693 45.776 37.9933 44.848C36.6493 43.92 35.6253 42.688 34.9213 41.152C34.2173 39.616 33.8652 37.952 33.8652 36.16C33.8652 33.728 34.3293 31.568 35.2573 29.68C36.1853 27.76 37.4653 26.272 39.0973 25.216C40.7293 24.128 42.5373 23.584 44.5213 23.584C46.9533 23.584 48.9053 24.432 50.3773 26.128C51.8813 27.792 52.7613 29.856 53.0173 32.32C54.5213 32.224 56.3133 31.904 58.3933 31.36C58.6493 31.296 58.8733 31.264 59.0653 31.264ZM43.3213 41.152C44.3453 41.152 45.2253 40.736 45.9613 39.904C46.7293 39.072 47.2413 37.872 47.4973 36.304C46.5053 35.632 45.7373 34.752 45.1933 33.664C44.6813 32.576 44.4253 31.424 44.4253 30.208C44.4253 29.696 44.4733 29.184 44.5693 28.672H44.3293C43.0493 28.672 41.9773 29.296 41.1133 30.544C40.2813 31.76 39.8653 33.488 39.8653 35.728C39.8653 37.488 40.2013 38.832 40.8733 39.76C41.5773 40.688 42.3933 41.152 43.3213 41.152ZM75.3935 32.56C76.2895 32.56 76.7375 33.232 76.7375 34.576C76.7375 37.104 74.7535 38.368 70.7855 38.368C70.0175 38.368 68.9135 38.224 67.4735 37.936C67.8895 39.92 68.2255 42.128 68.4815 44.56C68.7695 46.96 68.9135 48.944 68.9135 50.512C68.9135 53.968 68.3535 56.608 67.2335 58.432C66.1135 60.256 64.6415 61.168 62.8175 61.168C60.5135 61.168 58.8655 59.536 57.8735 56.272C56.9135 53.008 56.4335 48.08 56.4335 41.488C56.4335 35.344 57.0895 29.12 58.4015 22.816C59.7455 16.48 61.5695 11.248 63.8735 7.12C66.2095 2.96 68.7695 0.879997 71.5535 0.879997C73.0575 0.879997 74.2255 1.552 75.0575 2.896C75.9215 4.24 76.3535 6.048 76.3535 8.32C76.3535 15.84 71.8575 24.032 62.8655 32.896C62.5455 36.032 62.3855 38.784 62.3855 41.152C62.3855 44.448 62.4975 47.824 62.7215 51.28C62.9455 54.768 63.3135 56.512 63.8255 56.512C64.7855 56.512 65.2655 54.848 65.2655 51.52C65.2655 49.024 65.0895 46.608 64.7375 44.272C64.4175 41.936 63.9695 39.472 63.3935 36.88C63.3615 36.464 63.4895 35.936 63.7775 35.296C64.0975 34.656 64.4815 34.096 64.9295 33.616C65.3775 33.136 65.7775 32.896 66.1295 32.896C66.7695 32.896 67.5375 32.928 68.4335 32.992C68.7215 33.024 69.0575 33.04 69.4415 33.04C70.7215 33.04 72.1455 32.928 73.7135 32.704C73.9695 32.672 74.2415 32.64 74.5295 32.608C74.8175 32.576 75.1055 32.56 75.3935 32.56ZM70.5455 5.632C69.9695 5.632 69.2495 6.608 68.3855 8.56C67.5535 10.512 66.7215 13.104 65.8895 16.336C65.0575 19.536 64.3375 22.928 63.7295 26.512C66.2895 23.6 68.2575 20.576 69.6335 17.44C71.0095 14.272 71.7135 11.312 71.7455 8.56C71.7455 6.608 71.3455 5.632 70.5455 5.632ZM76.5245 46.24C75.3085 46.24 74.4445 45.6 73.9325 44.32C73.4525 43.04 73.2125 40.992 73.2125 38.176C73.2125 34.016 73.8045 30.064 74.9885 26.32C75.2765 25.392 75.7405 24.72 76.3805 24.304C77.0525 23.856 77.9805 23.632 79.1645 23.632C79.8045 23.632 80.2525 23.712 80.5085 23.872C80.7645 24.032 80.8925 24.336 80.8925 24.784C80.8925 25.296 80.6525 26.448 80.1725 28.24C79.8525 29.52 79.5965 30.64 79.4045 31.6C79.2125 32.56 79.0525 33.744 78.9245 35.152C79.9805 32.4 81.1645 30.16 82.4765 28.432C83.7885 26.704 85.0685 25.472 86.3165 24.736C87.5965 24 88.7645 23.632 89.8205 23.632C91.9005 23.632 92.9405 24.672 92.9405 26.752C92.9405 27.168 92.7965 28.176 92.5085 29.776C92.2525 31.056 92.1245 31.856 92.1245 32.176C92.1245 33.296 92.5245 33.856 93.3245 33.856C94.2205 33.856 95.3725 33.152 96.7805 31.744C97.1965 31.328 97.6285 31.12 98.0765 31.12C98.4925 31.12 98.8125 31.312 99.0365 31.696C99.2925 32.048 99.4205 32.528 99.4205 33.136C99.4205 34.32 99.1005 35.248 98.4605 35.92C97.5645 36.848 96.5085 37.648 95.2925 38.32C94.1085 38.96 92.8445 39.28 91.5005 39.28C89.8045 39.28 88.5085 38.848 87.6125 37.984C86.7485 37.12 86.3165 35.952 86.3165 34.48C86.3165 34 86.3645 33.52 86.4605 33.04C86.5245 32.4 86.5565 31.968 86.5565 31.744C86.5565 31.232 86.3805 30.976 86.0285 30.976C85.5485 30.976 84.9085 31.52 84.1085 32.608C83.3405 33.664 82.5725 35.072 81.8045 36.832C81.0365 38.592 80.4125 40.448 79.9325 42.4C79.5805 43.904 79.1645 44.928 78.6845 45.472C78.2365 45.984 77.5165 46.24 76.5245 46.24ZM103.072 46.24C101.184 46.24 99.5683 45.776 98.2243 44.848C96.9123 43.888 95.9203 42.64 95.2483 41.104C94.5763 39.568 94.2402 37.92 94.2402 36.16C94.2402 33.728 94.6883 31.568 95.5843 29.68C96.5123 27.76 97.7603 26.272 99.3283 25.216C100.896 24.128 102.656 23.584 104.608 23.584C106.496 23.584 108.112 24.064 109.456 25.024C110.8 25.952 111.808 27.184 112.48 28.72C113.152 30.256 113.488 31.904 113.488 33.664C113.488 36.096 113.024 38.272 112.096 40.192C111.168 42.08 109.904 43.568 108.304 44.656C106.736 45.712 104.992 46.24 103.072 46.24ZM103.6 41.056C104.688 41.056 105.6 40.464 106.336 39.28C107.104 38.096 107.488 36.368 107.488 34.096C107.488 32.336 107.168 31.008 106.528 30.112C105.888 29.216 105.12 28.768 104.224 28.768C103.072 28.768 102.112 29.36 101.344 30.544C100.608 31.696 100.24 33.424 100.24 35.728C100.24 37.552 100.56 38.896 101.2 39.76C101.84 40.624 102.64 41.056 103.6 41.056ZM125.404 47.296C123.74 47.296 122.46 46.912 121.564 46.144C120.7 45.376 120.268 44.512 120.268 43.552C120.268 42.72 120.572 42 121.18 41.392C121.788 40.784 122.684 40.48 123.868 40.48C124.284 40.48 124.764 40.528 125.308 40.624C125.884 40.688 126.316 40.736 126.604 40.768C126.572 39.936 126.38 39.152 126.028 38.416C125.708 37.68 125.292 36.976 124.78 36.304C124.268 35.6 123.788 34.992 123.34 34.48C122.348 36.368 121.356 37.936 120.364 39.184C119.404 40.432 118.348 41.616 117.196 42.736C116.62 43.312 116.012 43.6 115.372 43.6C114.86 43.6 114.444 43.424 114.124 43.072C113.804 42.688 113.644 42.224 113.644 41.68C113.644 41.04 113.868 40.448 114.316 39.904L114.94 39.136C116.7 36.96 118.028 35.168 118.924 33.76C119.468 32.832 120.108 31.6 120.844 30.064C121.58 28.496 122.3 26.88 123.004 25.216C123.612 23.808 124.876 23.104 126.796 23.104C127.692 23.104 128.316 23.184 128.668 23.344C129.02 23.504 129.196 23.76 129.196 24.112C129.196 24.304 129.132 24.608 129.004 25.024C128.876 25.44 128.7 25.856 128.476 26.272C127.9 27.424 127.612 28.4 127.612 29.2C127.612 29.68 127.772 30.208 128.092 30.784C128.444 31.36 128.972 32.08 129.676 32.944C130.7 34.288 131.468 35.44 131.98 36.4C132.524 37.328 132.796 38.352 132.796 39.472C132.796 39.792 132.764 40.24 132.7 40.816C134.268 40.208 136.108 38.592 138.22 35.968C138.604 35.52 139.036 35.296 139.516 35.296C139.932 35.296 140.252 35.488 140.476 35.872C140.732 36.256 140.86 36.784 140.86 37.456C140.86 38.672 140.556 39.664 139.948 40.432C138.348 42.416 136.812 43.776 135.34 44.512C133.9 45.216 132.108 45.6 129.964 45.664C128.684 46.752 127.164 47.296 125.404 47.296ZM143.248 20.464C141.904 20.464 140.896 20.16 140.224 19.552C139.552 18.912 139.216 18.032 139.216 16.912C139.216 15.792 139.648 14.864 140.512 14.128C141.408 13.36 142.512 12.976 143.824 12.976C145.008 12.976 145.968 13.264 146.704 13.84C147.44 14.416 147.808 15.232 147.808 16.288C147.808 17.568 147.392 18.592 146.56 19.36C145.728 20.096 144.624 20.464 143.248 20.464ZM142.864 46.24C140.784 46.24 139.264 45.504 138.304 44.032C137.376 42.56 136.912 40.608 136.912 38.176C136.912 36.736 137.088 34.896 137.44 32.656C137.824 30.384 138.304 28.272 138.88 26.32C139.168 25.296 139.552 24.592 140.032 24.208C140.512 23.824 141.28 23.632 142.336 23.632C143.968 23.632 144.784 24.176 144.784 25.264C144.784 26.064 144.48 27.92 143.872 30.832C143.104 34.352 142.72 36.736 142.72 37.984C142.72 38.944 142.848 39.68 143.104 40.192C143.36 40.704 143.792 40.96 144.4 40.96C144.976 40.96 145.696 40.56 146.56 39.76C147.424 38.96 148.576 37.696 150.016 35.968C150.4 35.52 150.832 35.296 151.312 35.296C151.728 35.296 152.048 35.488 152.272 35.872C152.528 36.256 152.656 36.784 152.656 37.456C152.656 38.736 152.352 39.728 151.744 40.432C148.576 44.304 145.616 46.24 142.864 46.24ZM152.181 46.24C150.965 46.24 150.101 45.6 149.589 44.32C149.109 43.04 148.869 40.992 148.869 38.176C148.869 34.016 149.461 30.064 150.645 26.32C150.933 25.392 151.397 24.72 152.037 24.304C152.709 23.856 153.637 23.632 154.821 23.632C155.461 23.632 155.909 23.712 156.165 23.872C156.421 24.032 156.549 24.336 156.549 24.784C156.549 25.296 156.309 26.448 155.829 28.24C155.509 29.52 155.253 30.64 155.061 31.6C154.869 32.56 154.709 33.744 154.581 35.152C155.637 32.4 156.821 30.16 158.133 28.432C159.445 26.704 160.725 25.472 161.973 24.736C163.253 24 164.421 23.632 165.477 23.632C167.557 23.632 168.597 24.672 168.597 26.752C168.597 28 168.245 30.256 167.541 33.52C166.933 36.304 166.629 38.144 166.629 39.04C166.629 40.32 167.093 40.96 168.021 40.96C168.661 40.96 169.413 40.576 170.277 39.808C171.173 39.008 172.357 37.728 173.829 35.968C174.213 35.52 174.645 35.296 175.125 35.296C175.541 35.296 175.861 35.488 176.085 35.872C176.341 36.256 176.469 36.784 176.469 37.456C176.469 38.736 176.165 39.728 175.557 40.432C174.181 42.128 172.693 43.52 171.093 44.608C169.525 45.696 167.733 46.24 165.717 46.24C164.085 46.24 162.853 45.776 162.021 44.848C161.189 43.888 160.773 42.512 160.773 40.72C160.773 39.824 160.997 38.224 161.445 35.92C161.861 33.904 162.069 32.512 162.069 31.744C162.069 31.232 161.893 30.976 161.541 30.976C161.125 30.976 160.533 31.52 159.765 32.608C159.029 33.664 158.261 35.072 157.461 36.832C156.693 38.592 156.069 40.448 155.589 42.4C155.237 43.904 154.821 44.928 154.341 45.472C153.893 45.984 153.173 46.24 152.181 46.24ZM189.769 36.736C190.185 36.736 190.505 36.928 190.729 37.312C190.985 37.696 191.113 38.224 191.113 38.896C191.113 40.048 190.841 41.04 190.297 41.872C189.401 43.248 188.217 44.32 186.745 45.088C185.305 45.856 183.577 46.24 181.561 46.24C178.489 46.24 176.105 45.328 174.409 43.504C172.713 41.648 171.865 39.152 171.865 36.016C171.865 33.808 172.329 31.76 173.257 29.872C174.185 27.952 175.465 26.432 177.097 25.312C178.761 24.192 180.633 23.632 182.713 23.632C184.569 23.632 186.057 24.192 187.177 25.312C188.297 26.4 188.857 27.888 188.857 29.776C188.857 31.984 188.057 33.888 186.457 35.488C184.889 37.056 182.201 38.304 178.393 39.232C179.161 40.704 180.457 41.44 182.281 41.44C183.593 41.44 184.665 41.136 185.497 40.528C186.361 39.92 187.353 38.896 188.473 37.456C188.857 36.976 189.289 36.736 189.769 36.736ZM181.897 28.336C180.713 28.336 179.705 29.024 178.873 30.4C178.073 31.776 177.673 33.44 177.673 35.392V35.488C179.561 35.04 181.049 34.368 182.137 33.472C183.225 32.576 183.769 31.536 183.769 30.352C183.769 29.744 183.593 29.264 183.241 28.912C182.921 28.528 182.473 28.336 181.897 28.336Z" fill="#d1d5db"/>
</svg>
